<?xml version="1.0" encoding="utf-8"?>
<!-- Uploaded to: SVG Repo, www.svgrepo.com, Generator: SVG Repo Mixer Tools -->
<svg width="800px" height="800px" viewBox="0 0 1024 1024" fill="#000000" class="icon"  version="1.1" xmlns="http://www.w3.org/2000/svg"><path d="M99.2 883.2c-41.6 0-75.2-34.4-75.2-76.8V648c32.8-7.2 59.2-24 73.6-47.2 8-13.6 22.4-39.2 22.4-65.6 0-24.8-12.8-47.2-21.6-62.4-15.2-24-44-44-74.4-50.4V264c0-42.4 33.6-76.8 75.2-76.8h825.6c41.6 0 75.2 34.4 75.2 76.8v158.4c-29.6 7.2-55.2 25.6-71.2 52l-2.4 4.8c-10.4 16.8-21.6 35.2-21.6 55.2s11.2 39.2 21.6 55.2l3.2 4.8c16 26.4 41.6 45.6 71.2 52v159.2c0 42.4-33.6 76.8-75.2 76.8H99.2z m249.6-48h604.8V692h-0.8c-62.4-39.2-98.4-96.8-98.4-156.8 0-60 36-117.6 98.4-156.8h0.8V236H348.8v72.8h-55.2v-72.8H70.4v135.2h0.8c47.2 29.6 98.4 88 98.4 164S118.4 669.6 71.2 699.2h-0.8v136h223.2v-72.8h55.2v72.8z" fill="" /><path d="M721.6 559.2h-75.2c-3.2 0-5.6 0.8-8.8 2.4-2.4 1.6-4 0-4 3.2s0 6.4 0.8 10.4 0.8 3.2 0.8 5.6c0 4.8 4 6.4 11.2 4.8H720c7.2 0 11.2 4 11.2 11.2v24c0 8-5.6 12-16 12h-22.4c-5.6 0-12 0-18.4 0.8-6.4 0.8-12.8 0.8-17.6 0.8h-10.4c-6.4 0-10.4 4-10.4 12v55.2c0 4-3.2 6.4-8.8 6.4h-26.4c-9.6 0-14.4-4-14.4-12.8 0-3.2 0-10.4 0.8-20.8s0-25.6-0.8-29.6c0-4-0.8-6.4-0.8-8-0.8-0.8-3.2-1.6-6.4-1.6H504c-9.6 0-15.2-4.8-15.2-16 0-2.4 0-5.6-0.8-8.8-0.8-3.2-0.8-4.8 0-8.8 0.8-4 2.4-7.2 3.2-11.2 1.6-3.2 4.8-4 8.8-3.2h81.6c1.6 0 2.4-1.6 2.4-6.4v-16c0-4-4.8-5.6-13.6-5.6h-71.2c-3.2 0-5.6 0-8-0.8-2.4 0-3.2-2.4-3.2-6.4v-12c0-6.4 0-11.2-0.8-14.4-1.6-4.8 0-8.8 3.2-12 4-3.2 8.8-4.8 15.2-4.8 6.4 0.8 12.8 0.8 20 0.8 7.2-0.8 8-0.8 12-0.8h13.6c4.8 0 6.4-1.6 4.8-4.8-1.6-1.6-2.4-8-9.6-17.6-8-10.4-19.2-27.2-28-38.4-9.6-13.6-21.6-28.8-34.4-44-5.6-8.8-4-16 3.2-21.6 4-2.4 8-5.6 12-8.8 4-3.2 8.8-7.2 14.4-10.4 7.2-4.8 14.4-0.8 21.6 12.8 2.4 3.2 6.4 8.8 12.8 17.6s12.8 16.8 20 27.2c6.4 9.6 13.6 18.4 19.2 25.6 6.4 8 9.6 12 10.4 13.6 1.6 3.2 4 4.8 8 5.6 4 0.8 7.2-0.8 8.8-4 0.8-1.6 4-6.4 9.6-15.2 5.6-8 12-17.6 19.2-28 7.2-10.4 13.6-20 19.2-29.6 6.4-8.8 9.6-15.2 11.2-17.6 4-5.6 7.2-8.8 9.6-10.4 2.4-1.6 7.2-0.8 13.6 0.8 4 1.6 8 4 12 7.2 4.8 3.2 8 5.6 8.8 7.2 8 8.8 10.4 16 7.2 22.4-1.6 2.4-5.6 8.8-12.8 18.4-7.2 9.6-14.4 20-22.4 30.4-8 10.4-15.2 27.2-21.6 36.8-6.4 9.6-10.4 15.2-11.2 16.8-2.4 4-1.6 6.4 3.2 7.2 4 0.8 8 1.6 12 1.6h46.4c4 0 7.2 1.6 9.6 4.8 2.4 3.2 4 6.4 4 9.6v26.4c0.8 6.4-3.2 8.8-10.4 8.8zM292.8 387.2h56.8v121.6h-56.8V387.2zM349.6 705.6h-56.8V562.4h56.8v143.2z" fill="" /></svg>